<svg xmlns="http://www.w3.org/2000/svg" xmlns:xlink="http://www.w3.org/1999/xlink" width="874" height="594" viewBox="0 0 874 594">
  <defs>
    <clipPath id="clip-Artboard_4">
      <rect width="874" height="594"/>
    </clipPath>
  </defs>
  <g id="Artboard_4" data-name="Artboard – 4" clip-path="url(#clip-Artboard_4)">
    <rect width="874" height="594" fill="#fff"/>
    <g id="Group_7" data-name="Group 7">
      <g id="Group_2" data-name="Group 2">
        <g id="Group_1" data-name="Group 1" transform="translate(-278 -217.957)">
          <rect id="Rectangle_1" data-name="Rectangle 1" width="879" height="596" transform="translate(275 215.957)" fill="#fff"/>
          <path id="Path_4" data-name="Path 4" d="M223.191,67.4,254.619,0l793.67,370.095-205.378,96.1L313.319,219.242,0,546.031,166.53,188.906Z" transform="translate(1381.007 712.394) rotate(155)"/>
          <text id="APPOINTMENTS" transform="translate(441 761.957)" fill="#fff" font-size="94" font-family="Roboto-Light, Roboto" font-weight="300"><tspan x="0" y="0">APPOINTMENTS</tspan></text>
        </g>
      </g>
      <g id="noun_schedule_2075485" transform="translate(418 138)">
        <path id="Path_12" data-name="Path 12" d="M17.537,41.911h9.806a1.03,1.03,0,0,1,1.03,1.03v3.664a1.03,1.03,0,0,1-1.03,1.03H17.537a1.03,1.03,0,0,1-1.03-1.03V42.941A1.03,1.03,0,0,1,17.537,41.911Z"/>
        <path id="Path_15" data-name="Path 15" d="M17.537,53.356h9.806a1.03,1.03,0,0,1,1.03,1.03V58.05a1.03,1.03,0,0,1-1.03,1.03H17.537a1.03,1.03,0,0,1-1.03-1.03V54.386a1.03,1.03,0,0,1,1.03-1.03Z"/>
        <path id="Path_17" data-name="Path 17" d="M17.537,64.8h9.806a1.03,1.03,0,0,1,1.03,1.03V69.5a1.03,1.03,0,0,1-1.03,1.03H17.537a1.03,1.03,0,0,1-1.03-1.03V65.831a1.03,1.03,0,0,1,1.03-1.03Z"/>
        <path id="Path_21" data-name="Path 21" d="M77.071,30.466h51.82c3.007,0,5.445,1.589,5.445,3.55V46.641c0,1.961-2.438,3.55-5.445,3.55H77.071c-3.007,0-5.445-1.589-5.445-3.55V34.016c0-1.961,2.438-3.55,5.445-3.55Z" transform="translate(-134 -20)"/>
        <path id="Path_23" data-name="Path 23" d="M51.375,275.15c-14.654-.015-26.53-11.37-26.547-25.382V79.873H342.075V190.751a98.882,98.882,0,0,1,19.828,22.3V49.341C361.874,24.864,341.13,5.028,315.532,5H51.375C25.775,5.027,5.029,24.863,5,49.341V249.769c.029,24.478,20.775,44.314,46.375,44.341h128.1a92.527,92.527,0,0,1-4.387-18.959ZM283.105,23.959h2.939c8.713.752,15.265,7.925,14.872,16.281s-7.593,14.938-16.342,14.938S268.626,48.6,268.233,40.24,274.392,24.71,283.105,23.959Zm-202.245,0H83.8c8.713.752,15.265,7.925,14.872,16.281S91.078,55.178,82.33,55.178,66.382,48.6,65.988,40.24,72.147,24.71,80.86,23.959Z" transform="translate(-331.903 -82)"/>
        <path id="Path_24" data-name="Path 24" d="M112.128,51.508a60.323,60.323,0,1,0,60.619,60.322,60.471,60.471,0,0,0-60.619-60.322Zm0,109.548A49.227,49.227,0,1,1,161.6,111.83a49.348,49.348,0,0,1-49.469,49.226Z" transform="translate(-156 82.847)"/>
        <path id="Path_25" data-name="Path 25" d="M111.945,92.56H83.831V61.276A1.335,1.335,0,0,0,82.445,60h-9.8a1.334,1.334,0,0,0-1.386,1.276v41.582a1.334,1.334,0,0,0,1.386,1.276h39.3a1.335,1.335,0,0,0,1.386-1.275V93.836a1.335,1.335,0,0,0-1.386-1.276Z" transform="translate(-123.748 99.223)"/>
        <path id="Path_26" data-name="Path 26" d="M77.071,30.466h51.82c3.007,0,5.445,1.589,5.445,3.55V46.641c0,1.961-2.438,3.55-5.445,3.55H77.071c-3.007,0-5.445-1.589-5.445-3.55V34.016c0-1.961,2.438-3.55,5.445-3.55Z" transform="translate(-251 -20)"/>
        <path id="Path_27" data-name="Path 27" d="M77.071,30.466h51.82c3.007,0,5.445,1.589,5.445,3.55V46.641c0,1.961-2.438,3.55-5.445,3.55H77.071c-3.007,0-5.445-1.589-5.445-3.55V34.016c0-1.961,2.438-3.55,5.445-3.55Z" transform="translate(-368 -20)"/>
        <path id="Path_28" data-name="Path 28" d="M77.071,30.466h51.82c3.007,0,5.445,1.589,5.445,3.55V46.641c0,1.961-2.438,3.55-5.445,3.55H77.071c-3.007,0-5.445-1.589-5.445-3.55V34.016c0-1.961,2.438-3.55,5.445-3.55Z" transform="translate(-134 27)"/>
        <path id="Path_29" data-name="Path 29" d="M77.071,30.466h51.82c3.007,0,5.445,1.589,5.445,3.55V46.641c0,1.961-2.438,3.55-5.445,3.55H77.071c-3.007,0-5.445-1.589-5.445-3.55V34.016c0-1.961,2.438-3.55,5.445-3.55Z" transform="translate(-251 27)"/>
        <path id="Path_30" data-name="Path 30" d="M77.071,30.466h51.82c3.007,0,5.445,1.589,5.445,3.55V46.641c0,1.961-2.438,3.55-5.445,3.55H77.071c-3.007,0-5.445-1.589-5.445-3.55V34.016c0-1.961,2.438-3.55,5.445-3.55Z" transform="translate(-368 27)"/>
        <path id="Path_31" data-name="Path 31" d="M77.071,30.466h51.82c3.007,0,5.445,1.589,5.445,3.55V46.641c0,1.961-2.438,3.55-5.445,3.55H77.071c-3.007,0-5.445-1.589-5.445-3.55V34.016c0-1.961,2.438-3.55,5.445-3.55Z" transform="translate(-368 74)"/>
        <path id="Path_32" data-name="Path 32" d="M77.071,30.466h51.82c3.007,0,5.445,1.589,5.445,3.55V46.641c0,1.961-2.438,3.55-5.445,3.55H77.071c-3.007,0-5.445-1.589-5.445-3.55V34.016c0-1.961,2.438-3.55,5.445-3.55Z" transform="translate(-251 74)"/>
      </g>
    </g>
  </g>
</svg>
