<svg xmlns="http://www.w3.org/2000/svg" xmlns:xlink="http://www.w3.org/1999/xlink" width="2335" height="612" viewBox="0 0 2335 612">
  <defs>
    <clipPath id="clip-Artboard_6">
      <rect width="2335" height="612"/>
    </clipPath>
  </defs>
  <g id="Artboard_6" data-name="Artboard – 6" clip-path="url(#clip-Artboard_6)">
    <rect width="2335" height="612" fill="#707070"/>
    <g id="Group_121" data-name="Group 121">
      <g id="up-arrow" transform="translate(2285.129 -214.197) rotate(90)">
        <g id="Group_13" data-name="Group 13" transform="translate(287.76)">
          <g id="Group_12" data-name="Group 12">
            <path id="Path_35" data-name="Path 35" d="M245.387,0h-.213a10.58,10.58,0,0,0-10.56,10.667A10.72,10.72,0,1,0,245.387,0Z" transform="translate(-234.614)" fill="#ef4735"/>
          </g>
        </g>
        <g id="Group_15" data-name="Group 15" transform="translate(287.76 42.667)">
          <g id="Group_14" data-name="Group 14">
            <path id="Path_36" data-name="Path 36" d="M245.387,42.667h-.213a10.58,10.58,0,0,0-10.56,10.667,10.72,10.72,0,1,0,10.773-10.667Z" transform="translate(-234.614 -42.667)" fill="#ef4735"/>
          </g>
        </g>
        <g id="Group_17" data-name="Group 17" transform="translate(287.76 107.784)">
          <g id="Group_16" data-name="Group 16">
            <path id="Path_37" data-name="Path 37" d="M245.387,85.333h-.213A10.58,10.58,0,0,0,234.614,96a10.72,10.72,0,1,0,10.773-10.667Z" transform="translate(-234.614 -85.333)" fill="#ef4735"/>
          </g>
        </g>
        <g id="Group_19" data-name="Group 19" transform="translate(287.76 161.677)">
          <g id="Group_18" data-name="Group 18">
            <path id="Path_38" data-name="Path 38" d="M245.387,128h-.213a10.58,10.58,0,0,0-10.56,10.667A10.72,10.72,0,1,0,245.387,128Z" transform="translate(-234.614 -128)" fill="#ef4735"/>
          </g>
        </g>
        <g id="Group_21" data-name="Group 21" transform="translate(287.76 215.569)">
          <g id="Group_20" data-name="Group 20">
            <path id="Path_39" data-name="Path 39" d="M245.387,170.667h-.213a10.58,10.58,0,0,0-10.56,10.667,10.72,10.72,0,1,0,10.773-10.667Z" transform="translate(-234.614 -170.667)" fill="#ef4735"/>
          </g>
        </g>
        <g id="Group_23" data-name="Group 23" transform="translate(287.76 269.461)">
          <g id="Group_22" data-name="Group 22">
            <path id="Path_40" data-name="Path 40" d="M245.387,213.333h-.213A10.58,10.58,0,0,0,234.614,224a10.72,10.72,0,1,0,10.773-10.667Z" transform="translate(-234.614 -213.333)" fill="#ef4735"/>
          </g>
        </g>
        <g id="Group_25" data-name="Group 25" transform="translate(287.76 323.354)">
          <g id="Group_24" data-name="Group 24">
            <path id="Path_41" data-name="Path 41" d="M245.387,256h-.213a10.58,10.58,0,0,0-10.56,10.667A10.72,10.72,0,1,0,245.387,256Z" transform="translate(-234.614 -256)" fill="#ef4735"/>
          </g>
        </g>
        <g id="Group_27" data-name="Group 27" transform="translate(234.49 42.667)">
          <g id="Group_26" data-name="Group 26">
            <path id="Path_42" data-name="Path 42" d="M202.72,42.667h-.213a10.563,10.563,0,0,0-10.539,10.667A10.72,10.72,0,1,0,202.72,42.667Z" transform="translate(-191.968 -42.667)" fill="#ef4735"/>
          </g>
        </g>
        <g id="Group_29" data-name="Group 29" transform="translate(234.49 107.784)">
          <g id="Group_28" data-name="Group 28">
            <path id="Path_43" data-name="Path 43" d="M202.72,85.333h-.213A10.563,10.563,0,0,0,191.968,96,10.72,10.72,0,1,0,202.72,85.333Z" transform="translate(-191.968 -85.333)" fill="#ef4735"/>
          </g>
        </g>
        <g id="Group_31" data-name="Group 31" transform="translate(234.49 161.677)">
          <g id="Group_30" data-name="Group 30">
            <path id="Path_44" data-name="Path 44" d="M202.72,128h-.213a10.563,10.563,0,0,0-10.539,10.667A10.72,10.72,0,1,0,202.72,128Z" transform="translate(-191.968 -128)" fill="#ef4735"/>
          </g>
        </g>
        <g id="Group_33" data-name="Group 33" transform="translate(234.49 215.569)">
          <g id="Group_32" data-name="Group 32">
            <path id="Path_45" data-name="Path 45" d="M202.72,170.667h-.213a10.563,10.563,0,0,0-10.539,10.667,10.72,10.72,0,1,0,10.752-10.667Z" transform="translate(-191.968 -170.667)" fill="#ef4735"/>
          </g>
        </g>
        <g id="Group_35" data-name="Group 35" transform="translate(234.464 269.461)">
          <g id="Group_34" data-name="Group 34">
            <path id="Path_46" data-name="Path 46" d="M202.72,213.333h-.213A10.58,10.58,0,0,0,191.947,224a10.72,10.72,0,1,0,10.773-10.667Z" transform="translate(-191.947 -213.333)" fill="#ef4735"/>
          </g>
        </g>
        <g id="Group_37" data-name="Group 37" transform="translate(181.194 107.784)">
          <g id="Group_36" data-name="Group 36">
            <path id="Path_47" data-name="Path 47" d="M160.053,85.333h-.213A10.563,10.563,0,0,0,149.3,96a10.72,10.72,0,1,0,10.752-10.667Z" transform="translate(-149.301 -85.333)" fill="#ef4735"/>
          </g>
        </g>
        <g id="Group_39" data-name="Group 39" transform="translate(181.194 161.677)">
          <g id="Group_38" data-name="Group 38">
            <path id="Path_48" data-name="Path 48" d="M160.053,128h-.213A10.563,10.563,0,0,0,149.3,138.667,10.72,10.72,0,1,0,160.053,128Z" transform="translate(-149.301 -128)" fill="#ef4735"/>
          </g>
        </g>
        <g id="Group_41" data-name="Group 41" transform="translate(181.194 215.569)">
          <g id="Group_40" data-name="Group 40">
            <path id="Path_49" data-name="Path 49" d="M160.053,170.667h-.213A10.563,10.563,0,0,0,149.3,181.334a10.721,10.721,0,1,0,10.752-10.667Z" transform="translate(-149.301 -170.667)" fill="#ef4735"/>
          </g>
        </g>
        <g id="Group_43" data-name="Group 43" transform="translate(181.168 269.461)">
          <g id="Group_42" data-name="Group 42">
            <path id="Path_50" data-name="Path 50" d="M160.053,213.333h-.213A10.58,10.58,0,0,0,149.28,224a10.72,10.72,0,1,0,10.773-10.667Z" transform="translate(-149.28 -213.333)" fill="#ef4735"/>
          </g>
        </g>
        <g id="Group_45" data-name="Group 45" transform="translate(127.899 161.677)">
          <g id="Group_44" data-name="Group 44">
            <path id="Path_51" data-name="Path 51" d="M117.387,128h-.213a10.563,10.563,0,0,0-10.539,10.667A10.72,10.72,0,1,0,117.387,128Z" transform="translate(-106.635 -128)" fill="#ef4735"/>
          </g>
        </g>
        <g id="Group_47" data-name="Group 47" transform="translate(127.899 215.569)">
          <g id="Group_46" data-name="Group 46">
            <path id="Path_52" data-name="Path 52" d="M117.387,170.667h-.213a10.563,10.563,0,0,0-10.539,10.667,10.72,10.72,0,1,0,10.752-10.667Z" transform="translate(-106.635 -170.667)" fill="#ef4735"/>
          </g>
        </g>
        <g id="Group_49" data-name="Group 49" transform="translate(127.873 269.461)">
          <g id="Group_48" data-name="Group 48">
            <path id="Path_53" data-name="Path 53" d="M117.387,213.333h-.213A10.58,10.58,0,0,0,106.614,224a10.72,10.72,0,1,0,10.773-10.667Z" transform="translate(-106.614 -213.333)" fill="#ef4735"/>
          </g>
        </g>
        <g id="Group_51" data-name="Group 51" transform="translate(63.968 215.569)">
          <g id="Group_50" data-name="Group 50">
            <path id="Path_54" data-name="Path 54" d="M74.72,170.667h-.213a10.563,10.563,0,0,0-10.539,10.667A10.72,10.72,0,1,0,74.72,170.667Z" transform="translate(-63.968 -170.667)" fill="#ef4735"/>
          </g>
        </g>
        <g id="Group_53" data-name="Group 53" transform="translate(63.947 269.461)">
          <g id="Group_52" data-name="Group 52">
            <path id="Path_55" data-name="Path 55" d="M74.72,213.333h-.213A10.58,10.58,0,0,0,63.947,224,10.72,10.72,0,1,0,74.72,213.333Z" transform="translate(-63.947 -213.333)" fill="#ef4735"/>
          </g>
        </g>
        <g id="Group_55" data-name="Group 55" transform="translate(21.28 269.461)">
          <g id="Group_54" data-name="Group 54">
            <path id="Path_56" data-name="Path 56" d="M32.053,213.333H31.84A10.58,10.58,0,0,0,21.28,224a10.72,10.72,0,1,0,10.773-10.667Z" transform="translate(-21.28 -213.333)" fill="#ef4735"/>
          </g>
        </g>
        <g id="Group_57" data-name="Group 57" transform="translate(341.055 42.667)">
          <g id="Group_56" data-name="Group 56">
            <path id="Path_57" data-name="Path 57" d="M288.053,42.667h-.213a10.58,10.58,0,0,0-10.56,10.667,10.72,10.72,0,1,0,10.773-10.667Z" transform="translate(-277.28 -42.667)" fill="#ef4735"/>
          </g>
        </g>
        <g id="Group_59" data-name="Group 59" transform="translate(341.055 107.784)">
          <g id="Group_58" data-name="Group 58">
            <path id="Path_58" data-name="Path 58" d="M288.053,85.333h-.213A10.58,10.58,0,0,0,277.28,96a10.72,10.72,0,1,0,10.773-10.667Z" transform="translate(-277.28 -85.333)" fill="#ef4735"/>
          </g>
        </g>
        <g id="Group_61" data-name="Group 61" transform="translate(341.055 161.677)">
          <g id="Group_60" data-name="Group 60">
            <path id="Path_59" data-name="Path 59" d="M288.053,128h-.213a10.58,10.58,0,0,0-10.56,10.667A10.72,10.72,0,1,0,288.053,128Z" transform="translate(-277.28 -128)" fill="#ef4735"/>
          </g>
        </g>
        <g id="Group_63" data-name="Group 63" transform="translate(341.055 215.569)">
          <g id="Group_62" data-name="Group 62">
            <path id="Path_60" data-name="Path 60" d="M288.053,170.667h-.213a10.58,10.58,0,0,0-10.56,10.667,10.72,10.72,0,1,0,10.773-10.667Z" transform="translate(-277.28 -170.667)" fill="#ef4735"/>
          </g>
        </g>
        <g id="Group_65" data-name="Group 65" transform="translate(341.055 269.461)">
          <g id="Group_64" data-name="Group 64">
            <path id="Path_61" data-name="Path 61" d="M288.053,213.333h-.213A10.58,10.58,0,0,0,277.28,224a10.72,10.72,0,1,0,10.773-10.667Z" transform="translate(-277.28 -213.333)" fill="#ef4735"/>
          </g>
        </g>
        <g id="Group_67" data-name="Group 67" transform="translate(394.352 107.784)">
          <g id="Group_66" data-name="Group 66">
            <path id="Path_62" data-name="Path 62" d="M330.72,85.333h-.213A10.58,10.58,0,0,0,319.947,96,10.72,10.72,0,1,0,330.72,85.333Z" transform="translate(-319.947 -85.333)" fill="#ef4735"/>
          </g>
        </g>
        <g id="Group_69" data-name="Group 69" transform="translate(394.352 161.677)">
          <g id="Group_68" data-name="Group 68">
            <path id="Path_63" data-name="Path 63" d="M330.72,128h-.213a10.58,10.58,0,0,0-10.56,10.667A10.72,10.72,0,1,0,330.72,128Z" transform="translate(-319.947 -128)" fill="#ef4735"/>
          </g>
        </g>
        <g id="Group_71" data-name="Group 71" transform="translate(394.352 215.569)">
          <g id="Group_70" data-name="Group 70">
            <path id="Path_64" data-name="Path 64" d="M330.72,170.667h-.213a10.58,10.58,0,0,0-10.56,10.667,10.72,10.72,0,1,0,10.773-10.667Z" transform="translate(-319.947 -170.667)" fill="#ef4735"/>
          </g>
        </g>
        <g id="Group_73" data-name="Group 73" transform="translate(394.352 269.461)">
          <g id="Group_72" data-name="Group 72">
            <path id="Path_65" data-name="Path 65" d="M330.72,213.333h-.213A10.58,10.58,0,0,0,319.947,224a10.72,10.72,0,1,0,10.773-10.667Z" transform="translate(-319.947 -213.333)" fill="#ef4735"/>
          </g>
        </g>
        <g id="Group_75" data-name="Group 75" transform="translate(447.648 161.677)">
          <g id="Group_74" data-name="Group 74">
            <path id="Path_66" data-name="Path 66" d="M373.387,128h-.213a10.58,10.58,0,0,0-10.56,10.667A10.72,10.72,0,1,0,373.387,128Z" transform="translate(-362.614 -128)" fill="#ef4735"/>
          </g>
        </g>
        <g id="Group_77" data-name="Group 77" transform="translate(447.648 215.569)">
          <g id="Group_76" data-name="Group 76">
            <path id="Path_67" data-name="Path 67" d="M373.387,170.667h-.213a10.58,10.58,0,0,0-10.56,10.667,10.72,10.72,0,1,0,10.773-10.667Z" transform="translate(-362.614 -170.667)" fill="#ef4735"/>
          </g>
        </g>
        <g id="Group_79" data-name="Group 79" transform="translate(447.648 269.461)">
          <g id="Group_78" data-name="Group 78">
            <path id="Path_68" data-name="Path 68" d="M373.387,213.333h-.213A10.58,10.58,0,0,0,362.614,224a10.72,10.72,0,1,0,10.773-10.667Z" transform="translate(-362.614 -213.333)" fill="#ef4735"/>
          </g>
        </g>
        <g id="Group_81" data-name="Group 81" transform="translate(511.572 215.569)">
          <g id="Group_80" data-name="Group 80">
            <path id="Path_69" data-name="Path 69" d="M416.053,170.667h-.213a10.58,10.58,0,0,0-10.56,10.667,10.72,10.72,0,1,0,10.773-10.667Z" transform="translate(-405.28 -170.667)" fill="#ef4735"/>
          </g>
        </g>
        <g id="Group_83" data-name="Group 83" transform="translate(511.572 269.461)">
          <g id="Group_82" data-name="Group 82">
            <path id="Path_70" data-name="Path 70" d="M416.053,213.333h-.213A10.58,10.58,0,0,0,405.28,224a10.72,10.72,0,1,0,10.773-10.667Z" transform="translate(-405.28 -213.333)" fill="#ef4735"/>
          </g>
        </g>
        <g id="Group_85" data-name="Group 85" transform="translate(554.239 269.461)">
          <g id="Group_84" data-name="Group 84">
            <path id="Path_71" data-name="Path 71" d="M458.72,213.333h-.213A10.58,10.58,0,0,0,447.947,224a10.72,10.72,0,1,0,10.773-10.667Z" transform="translate(-447.947 -213.333)" fill="#ef4735"/>
          </g>
        </g>
        <g id="Group_87" data-name="Group 87" transform="translate(287.76 377.246)">
          <g id="Group_86" data-name="Group 86">
            <path id="Path_72" data-name="Path 72" d="M245.387,298.667h-.213a10.58,10.58,0,0,0-10.56,10.667,10.72,10.72,0,1,0,10.773-10.667Z" transform="translate(-234.614 -298.667)" fill="#ef4735"/>
          </g>
        </g>
        <g id="Group_89" data-name="Group 89" transform="translate(287.76 431.138)">
          <g id="Group_88" data-name="Group 88">
            <path id="Path_73" data-name="Path 73" d="M245.387,341.333h-.213A10.58,10.58,0,0,0,234.614,352a10.72,10.72,0,1,0,10.773-10.667Z" transform="translate(-234.614 -341.333)" fill="#ef4735"/>
          </g>
        </g>
        <g id="Group_91" data-name="Group 91" transform="translate(287.76 485.03)">
          <g id="Group_90" data-name="Group 90">
            <path id="Path_74" data-name="Path 74" d="M245.387,384h-.213a10.58,10.58,0,0,0-10.56,10.667A10.72,10.72,0,1,0,245.387,384Z" transform="translate(-234.614 -384)" fill="#ef4735"/>
          </g>
        </g>
        <g id="Group_93" data-name="Group 93" transform="translate(287.76 550.148)">
          <g id="Group_92" data-name="Group 92">
            <path id="Path_75" data-name="Path 75" d="M245.387,426.667h-.213a10.58,10.58,0,0,0-10.56,10.667,10.72,10.72,0,1,0,10.773-10.667Z" transform="translate(-234.614 -426.667)" fill="#ef4735"/>
          </g>
        </g>
        <g id="Group_95" data-name="Group 95" transform="translate(287.76 592.814)">
          <g id="Group_94" data-name="Group 94">
            <path id="Path_76" data-name="Path 76" d="M245.387,469.333h-.213A10.58,10.58,0,0,0,234.614,480a10.72,10.72,0,1,0,10.773-10.667Z" transform="translate(-234.614 -469.333)" fill="#ef4735"/>
          </g>
        </g>
        <g id="Group_97" data-name="Group 97" transform="translate(341.055 323.354)">
          <g id="Group_96" data-name="Group 96">
            <path id="Path_77" data-name="Path 77" d="M288.053,256h-.213a10.58,10.58,0,0,0-10.56,10.667A10.72,10.72,0,1,0,288.053,256Z" transform="translate(-277.28 -256)" fill="#ef4735"/>
          </g>
        </g>
        <g id="Group_99" data-name="Group 99" transform="translate(341.055 377.246)">
          <g id="Group_98" data-name="Group 98">
            <path id="Path_78" data-name="Path 78" d="M288.053,298.667h-.213a10.58,10.58,0,0,0-10.56,10.667,10.72,10.72,0,1,0,10.773-10.667Z" transform="translate(-277.28 -298.667)" fill="#ef4735"/>
          </g>
        </g>
        <g id="Group_101" data-name="Group 101" transform="translate(341.055 431.138)">
          <g id="Group_100" data-name="Group 100">
            <path id="Path_79" data-name="Path 79" d="M288.053,341.333h-.213A10.58,10.58,0,0,0,277.28,352a10.72,10.72,0,1,0,10.773-10.667Z" transform="translate(-277.28 -341.333)" fill="#ef4735"/>
          </g>
        </g>
        <g id="Group_103" data-name="Group 103" transform="translate(341.055 485.03)">
          <g id="Group_102" data-name="Group 102">
            <path id="Path_80" data-name="Path 80" d="M288.053,384h-.213a10.58,10.58,0,0,0-10.56,10.667A10.72,10.72,0,1,0,288.053,384Z" transform="translate(-277.28 -384)" fill="#ef4735"/>
          </g>
        </g>
        <g id="Group_105" data-name="Group 105" transform="translate(341.055 550.148)">
          <g id="Group_104" data-name="Group 104">
            <path id="Path_81" data-name="Path 81" d="M288.053,426.667h-.213a10.58,10.58,0,0,0-10.56,10.667,10.72,10.72,0,1,0,10.773-10.667Z" transform="translate(-277.28 -426.667)" fill="#ef4735"/>
          </g>
        </g>
        <g id="Group_107" data-name="Group 107" transform="translate(341.055 592.814)">
          <g id="Group_106" data-name="Group 106">
            <path id="Path_82" data-name="Path 82" d="M288.053,469.333h-.213A10.58,10.58,0,0,0,277.28,480a10.72,10.72,0,1,0,10.773-10.667Z" transform="translate(-277.28 -469.333)" fill="#ef4735"/>
          </g>
        </g>
        <g id="Group_109" data-name="Group 109" transform="translate(234.464 323.354)">
          <g id="Group_108" data-name="Group 108">
            <path id="Path_83" data-name="Path 83" d="M202.72,256h-.213a10.58,10.58,0,0,0-10.56,10.667A10.72,10.72,0,1,0,202.72,256Z" transform="translate(-191.947 -256)" fill="#ef4735"/>
          </g>
        </g>
        <g id="Group_111" data-name="Group 111" transform="translate(234.464 377.246)">
          <g id="Group_110" data-name="Group 110">
            <path id="Path_84" data-name="Path 84" d="M202.72,298.667h-.213a10.58,10.58,0,0,0-10.56,10.667,10.72,10.72,0,1,0,10.773-10.667Z" transform="translate(-191.947 -298.667)" fill="#ef4735"/>
          </g>
        </g>
        <g id="Group_113" data-name="Group 113" transform="translate(234.464 431.138)">
          <g id="Group_112" data-name="Group 112">
            <path id="Path_85" data-name="Path 85" d="M202.72,341.333h-.213A10.58,10.58,0,0,0,191.947,352a10.72,10.72,0,1,0,10.773-10.667Z" transform="translate(-191.947 -341.333)" fill="#ef4735"/>
          </g>
        </g>
        <g id="Group_115" data-name="Group 115" transform="translate(234.464 485.03)">
          <g id="Group_114" data-name="Group 114">
            <path id="Path_86" data-name="Path 86" d="M202.72,384h-.213a10.58,10.58,0,0,0-10.56,10.667A10.72,10.72,0,1,0,202.72,384Z" transform="translate(-191.947 -384)" fill="#ef4735"/>
          </g>
        </g>
        <g id="Group_117" data-name="Group 117" transform="translate(234.464 550.148)">
          <g id="Group_116" data-name="Group 116">
            <path id="Path_87" data-name="Path 87" d="M202.72,426.667h-.213a10.58,10.58,0,0,0-10.56,10.667,10.72,10.72,0,1,0,10.773-10.667Z" transform="translate(-191.947 -426.667)" fill="#ef4735"/>
          </g>
        </g>
        <g id="Group_119" data-name="Group 119" transform="translate(234.464 592.814)">
          <g id="Group_118" data-name="Group 118">
            <path id="Path_88" data-name="Path 88" d="M202.72,469.333h-.213A10.58,10.58,0,0,0,191.947,480a10.72,10.72,0,1,0,10.773-10.667Z" transform="translate(-191.947 -469.333)" fill="#ef4735"/>
          </g>
        </g>
      </g>
      <g id="Path_89" data-name="Path 89">
        <path d="M 1049.978271484375 618.481689453125 L 0.5000293254852295 618.481689453125 L 0.5000293254852295 0.5000113844871521 L 1669.569458007812 0.5000113844871521 L 1049.978271484375 618.481689453125 Z" stroke="none"/>
        <path d="M 1 1 L 1 617.981689453125 L 1049.771484375 617.981689453125 L 1668.359985351562 1 L 1 1 M 0 0 L 1670.77880859375 0 L 1050.18505859375 618.981689453125 L 0 618.981689453125 L 0 0 Z" stroke="none" fill="#707070"/>
      </g>
      <g id="users" transform="translate(1026 280.989)">
        <g id="Group_120" data-name="Group 120" transform="translate(0.001 25.494)">
          <path id="Path_90" data-name="Path 90" d="M229.714,146.041a68.021,68.021,0,0,0,5.312-97.6C211.081,22.412,171,17.99,141.725,38.15,109.807,16.133,65.672,23.575,43.146,54.772a68.024,68.024,0,0,0,10.488,91.269C20.52,163.1-.149,196.74,0,233.328V263a10.007,10.007,0,0,0,10.12,9.891H273.228A10.007,10.007,0,0,0,283.348,263V233.328C283.5,196.74,262.829,163.1,229.714,146.041Zm-69.966-6.983c-1.012-.475-2.024-.89-2.924-1.425.081-.1.132-.207.212-.307a68.932,68.932,0,0,0,10.838-19.3l.314-.831a68.491,68.491,0,0,0,2.682-10.178c.091-.5.162-.989.243-1.533a67.993,67.993,0,0,0,.921-10.633,68.037,68.037,0,0,0-.921-10.613c-.081-.514-.152-.989-.243-1.533a68.509,68.509,0,0,0-2.682-10.178l-.314-.831a68.946,68.946,0,0,0-10.838-19.3c-.081-.1-.132-.207-.212-.307a51.153,51.153,0,0,1,25.329-6.7c27.9-.03,50.552,22.056,50.583,49.331a49.341,49.341,0,0,1-29.787,45.088c-.779.346-1.558.662-2.347.989a50.445,50.445,0,0,1-7.7,2.344c-.506.109-1.012.168-1.528.267a51.743,51.743,0,0,1-8.905.88c-1.346,0-2.7-.1-4.048-.217a7.82,7.82,0,0,1-1.518-.1,52.01,52.01,0,0,1-16.545-4.767C160.163,139.127,159.94,139.137,159.748,139.058ZM263.108,253.111H202.391V233.329c0-3.1-.182-6.162-.465-9.2-.081-.89-.222-1.771-.324-2.661-.273-2.186-.587-4.352-1.012-6.5q-.273-1.374-.577-2.76-.728-3.3-1.69-6.548c-.212-.712-.4-1.434-.627-2.136A97.053,97.053,0,0,0,185.5,178.533l-.395-.564q-2.61-3.788-5.576-7.329l-.071-.089a90.5,90.5,0,0,0-6.527-7.092h.415a73.255,73.255,0,0,0,8.612.593h.557a73.2,73.2,0,0,0,7.974-.5c.83-.1,1.65-.247,2.479-.376q3.229-.484,6.375-1.256c.6-.148,1.2-.287,1.811-.455a70.006,70.006,0,0,0,8.1-2.69c32.382,11.085,54.007,41.023,53.856,74.559v19.781Z" transform="translate(-0.001 -25.494)" fill="#fff"/>
        </g>
      </g>
    </g>
  </g>
</svg>
