<svg xmlns="http://www.w3.org/2000/svg" xmlns:xlink="http://www.w3.org/1999/xlink" width="874" height="594" viewBox="0 0 874 594">
  <defs>
    <clipPath id="clip-Artboard_2">
      <rect width="874" height="594"/>
    </clipPath>
  </defs>
  <g id="Artboard_2" data-name="Artboard – 2" clip-path="url(#clip-Artboard_2)">
    <rect width="874" height="594" fill="#fff"/>
    <g id="Group_3" data-name="Group 3">
      <g id="Group_2" data-name="Group 2">
        <g id="Group_1" data-name="Group 1" transform="translate(-278 -217.957)">
          <path id="Path_5" data-name="Path 5" d="M0,0H879V596H0Z" transform="translate(275 215.957)" fill="#eb4034"/>
          <path id="Path_4" data-name="Path 4" d="M223.191,478.634l31.428,67.4,793.671-370.095-205.378-96.1L313.319,326.789,0,0,166.53,357.126Z" transform="translate(1152.244 812.42) rotate(-155)"/>
          <text id="CLIENTS" transform="translate(488.136 340.008)" fill="#fff" font-size="116" font-family="Roboto-Light, Roboto" font-weight="300"><tspan x="0" y="0">CLIENTS</tspan></text>
        </g>
      </g>
      <g id="noun_profile_1729028" transform="translate(66 188.582)">
        <path id="Path_6" data-name="Path 6" d="M89.234,137.291a55.146,55.146,0,1,1,55.234-55.146A55.19,55.19,0,0,1,89.234,137.291Zm0-93.058a37.913,37.913,0,1,0,37.973,37.913A37.943,37.943,0,0,0,89.234,44.233Z" transform="translate(95.022 63.39)"/>
        <path id="Path_7" data-name="Path 7" d="M33.466,191.722a9.563,9.563,0,0,1-7.915-4.759,15.6,15.6,0,0,1-2.1-10.776C34.138,109.954,79.8,62.114,133.135,61.279s99.915,45.56,111.885,111.439c1.051,6.851-2.371,13.525-7.737,15.089s-10.745-2.545-12.16-9.289c-9.81-54.015-48-92.058-91.729-91.372s-81.166,39.914-89.918,94.22C42.5,187.394,38.32,191.723,33.466,191.722Z" transform="translate(53.871 154.677)"/>
        <path id="Path_8" data-name="Path 8" d="M188.072,378.888c-79.258,0-149.509-52.08-174.059-129.033S16.186,88.562,80.225,40.883A179.983,179.983,0,0,1,295.3,40.436,10.479,10.479,0,0,1,294.1,59.211a10.013,10.013,0,0,1-10.712-2.158c-67.7-49.773-161.3-39.193-216.707,24.5S12,241.4,68.371,304.2s150.116,71.893,217.054,21.05,85.382-145.147,42.7-218.348a10.508,10.508,0,0,1,3.559-14.23,10.052,10.052,0,0,1,13.935,3.636,190.379,190.379,0,0,1,1.786,188.134C314.809,342.915,253.956,378.984,188.072,378.888Z" transform="translate(0)"/>
        <path id="Path_9" data-name="Path 9" d="M96.886,49.083A12.152,12.152,0,0,1,87.7,45.038q-3.062-3.419-6.269-6.693A11.958,11.958,0,0,1,81.7,21.324a12.231,12.231,0,0,1,17.181.265q3.6,3.66,7,7.512a11.95,11.95,0,0,1,1.949,12.89,12.156,12.156,0,0,1-11.038,7.092Z" transform="translate(221.325 41.317)"/>
      </g>
    </g>
  </g>
</svg>
