<svg xmlns="http://www.w3.org/2000/svg" xmlns:xlink="http://www.w3.org/1999/xlink" width="1920" height="1080" viewBox="0 0 1920 1080">
  <defs>
    <clipPath id="clip-Web_1920_3">
      <rect width="1920" height="1080"/>
    </clipPath>
  </defs>
  <g id="Web_1920_3" data-name="Web 1920 – 3" clip-path="url(#clip-Web_1920_3)">
    <rect width="1920" height="1080"/>
    <g id="Group_123" data-name="Group 123">
      <g id="Group_122" data-name="Group 122" transform="translate(61 41)">
        <g id="up-arrow" transform="translate(1118.277 392.063)">
          <g id="Group_13" data-name="Group 13" transform="translate(254.778)">
            <g id="Group_12" data-name="Group 12">
              <path id="Path_35" data-name="Path 35" d="M245.387,0h-.213a10.58,10.58,0,0,0-10.56,10.667A10.72,10.72,0,1,0,245.387,0Z" transform="translate(-234.614)" fill="#ef4735"/>
            </g>
          </g>
          <g id="Group_15" data-name="Group 15" transform="translate(254.778 42.667)">
            <g id="Group_14" data-name="Group 14">
              <path id="Path_36" data-name="Path 36" d="M245.387,42.667h-.213a10.58,10.58,0,0,0-10.56,10.667,10.72,10.72,0,1,0,10.773-10.667Z" transform="translate(-234.614 -42.667)" fill="#ef4735"/>
            </g>
          </g>
          <g id="Group_17" data-name="Group 17" transform="translate(254.778 105.756)">
            <g id="Group_16" data-name="Group 16">
              <path id="Path_37" data-name="Path 37" d="M245.387,85.333h-.213A10.58,10.58,0,0,0,234.614,96a10.72,10.72,0,1,0,10.773-10.667Z" transform="translate(-234.614 -85.333)" fill="#ef4735"/>
            </g>
          </g>
          <g id="Group_19" data-name="Group 19" transform="translate(254.778 158.635)">
            <g id="Group_18" data-name="Group 18">
              <path id="Path_38" data-name="Path 38" d="M245.387,128h-.213a10.58,10.58,0,0,0-10.56,10.667A10.72,10.72,0,1,0,245.387,128Z" transform="translate(-234.614 -128)" fill="#ef4735"/>
            </g>
          </g>
          <g id="Group_21" data-name="Group 21" transform="translate(254.778 211.514)">
            <g id="Group_20" data-name="Group 20">
              <path id="Path_39" data-name="Path 39" d="M245.387,170.667h-.213a10.58,10.58,0,0,0-10.56,10.667,10.72,10.72,0,1,0,10.773-10.667Z" transform="translate(-234.614 -170.667)" fill="#ef4735"/>
            </g>
          </g>
          <g id="Group_23" data-name="Group 23" transform="translate(254.778 264.392)">
            <g id="Group_22" data-name="Group 22">
              <path id="Path_40" data-name="Path 40" d="M245.387,213.333h-.213A10.58,10.58,0,0,0,234.614,224a10.72,10.72,0,1,0,10.773-10.667Z" transform="translate(-234.614 -213.333)" fill="#ef4735"/>
            </g>
          </g>
          <g id="Group_25" data-name="Group 25" transform="translate(254.778 317.27)">
            <g id="Group_24" data-name="Group 24">
              <path id="Path_41" data-name="Path 41" d="M245.387,256h-.213a10.58,10.58,0,0,0-10.56,10.667A10.72,10.72,0,1,0,245.387,256Z" transform="translate(-234.614 -256)" fill="#ef4735"/>
            </g>
          </g>
          <g id="Group_27" data-name="Group 27" transform="translate(208.101 42.667)">
            <g id="Group_26" data-name="Group 26">
              <path id="Path_42" data-name="Path 42" d="M202.72,42.667h-.213a10.563,10.563,0,0,0-10.539,10.667A10.72,10.72,0,1,0,202.72,42.667Z" transform="translate(-191.968 -42.667)" fill="#ef4735"/>
            </g>
          </g>
          <g id="Group_29" data-name="Group 29" transform="translate(208.101 105.756)">
            <g id="Group_28" data-name="Group 28">
              <path id="Path_43" data-name="Path 43" d="M202.72,85.333h-.213A10.563,10.563,0,0,0,191.968,96,10.72,10.72,0,1,0,202.72,85.333Z" transform="translate(-191.968 -85.333)" fill="#ef4735"/>
            </g>
          </g>
          <g id="Group_31" data-name="Group 31" transform="translate(208.101 158.635)">
            <g id="Group_30" data-name="Group 30">
              <path id="Path_44" data-name="Path 44" d="M202.72,128h-.213a10.563,10.563,0,0,0-10.539,10.667A10.72,10.72,0,1,0,202.72,128Z" transform="translate(-191.968 -128)" fill="#ef4735"/>
            </g>
          </g>
          <g id="Group_33" data-name="Group 33" transform="translate(208.101 211.514)">
            <g id="Group_32" data-name="Group 32">
              <path id="Path_45" data-name="Path 45" d="M202.72,170.667h-.213a10.563,10.563,0,0,0-10.539,10.667,10.72,10.72,0,1,0,10.752-10.667Z" transform="translate(-191.968 -170.667)" fill="#ef4735"/>
            </g>
          </g>
          <g id="Group_35" data-name="Group 35" transform="translate(208.078 264.392)">
            <g id="Group_34" data-name="Group 34">
              <path id="Path_46" data-name="Path 46" d="M202.72,213.333h-.213A10.58,10.58,0,0,0,191.947,224a10.72,10.72,0,1,0,10.773-10.667Z" transform="translate(-191.947 -213.333)" fill="#ef4735"/>
            </g>
          </g>
          <g id="Group_37" data-name="Group 37" transform="translate(161.401 105.756)">
            <g id="Group_36" data-name="Group 36">
              <path id="Path_47" data-name="Path 47" d="M160.053,85.333h-.213A10.563,10.563,0,0,0,149.3,96a10.72,10.72,0,1,0,10.752-10.667Z" transform="translate(-149.301 -85.333)" fill="#ef4735"/>
            </g>
          </g>
          <g id="Group_39" data-name="Group 39" transform="translate(161.401 158.635)">
            <g id="Group_38" data-name="Group 38">
              <path id="Path_48" data-name="Path 48" d="M160.053,128h-.213A10.563,10.563,0,0,0,149.3,138.667,10.72,10.72,0,1,0,160.053,128Z" transform="translate(-149.301 -128)" fill="#ef4735"/>
            </g>
          </g>
          <g id="Group_41" data-name="Group 41" transform="translate(161.401 211.514)">
            <g id="Group_40" data-name="Group 40">
              <path id="Path_49" data-name="Path 49" d="M160.053,170.667h-.213A10.563,10.563,0,0,0,149.3,181.334a10.721,10.721,0,1,0,10.752-10.667Z" transform="translate(-149.301 -170.667)" fill="#ef4735"/>
            </g>
          </g>
          <g id="Group_43" data-name="Group 43" transform="translate(161.378 264.392)">
            <g id="Group_42" data-name="Group 42">
              <path id="Path_50" data-name="Path 50" d="M160.053,213.333h-.213A10.58,10.58,0,0,0,149.28,224a10.72,10.72,0,1,0,10.773-10.667Z" transform="translate(-149.28 -213.333)" fill="#ef4735"/>
            </g>
          </g>
          <g id="Group_45" data-name="Group 45" transform="translate(114.703 158.635)">
            <g id="Group_44" data-name="Group 44">
              <path id="Path_51" data-name="Path 51" d="M117.387,128h-.213a10.563,10.563,0,0,0-10.539,10.667A10.72,10.72,0,1,0,117.387,128Z" transform="translate(-106.635 -128)" fill="#ef4735"/>
            </g>
          </g>
          <g id="Group_47" data-name="Group 47" transform="translate(114.703 211.514)">
            <g id="Group_46" data-name="Group 46">
              <path id="Path_52" data-name="Path 52" d="M117.387,170.667h-.213a10.563,10.563,0,0,0-10.539,10.667,10.72,10.72,0,1,0,10.752-10.667Z" transform="translate(-106.635 -170.667)" fill="#ef4735"/>
            </g>
          </g>
          <g id="Group_49" data-name="Group 49" transform="translate(114.68 264.392)">
            <g id="Group_48" data-name="Group 48">
              <path id="Path_53" data-name="Path 53" d="M117.387,213.333h-.213A10.58,10.58,0,0,0,106.614,224a10.72,10.72,0,1,0,10.773-10.667Z" transform="translate(-106.614 -213.333)" fill="#ef4735"/>
            </g>
          </g>
          <g id="Group_51" data-name="Group 51" transform="translate(63.968 211.514)">
            <g id="Group_50" data-name="Group 50">
              <path id="Path_54" data-name="Path 54" d="M74.72,170.667h-.213a10.563,10.563,0,0,0-10.539,10.667A10.72,10.72,0,1,0,74.72,170.667Z" transform="translate(-63.968 -170.667)" fill="#ef4735"/>
            </g>
          </g>
          <g id="Group_53" data-name="Group 53" transform="translate(63.947 264.392)">
            <g id="Group_52" data-name="Group 52">
              <path id="Path_55" data-name="Path 55" d="M74.72,213.333h-.213A10.58,10.58,0,0,0,63.947,224,10.72,10.72,0,1,0,74.72,213.333Z" transform="translate(-63.947 -213.333)" fill="#ef4735"/>
            </g>
          </g>
          <g id="Group_55" data-name="Group 55" transform="translate(21.28 264.392)">
            <g id="Group_54" data-name="Group 54">
              <path id="Path_56" data-name="Path 56" d="M32.053,213.333H31.84A10.58,10.58,0,0,0,21.28,224a10.72,10.72,0,1,0,10.773-10.667Z" transform="translate(-21.28 -213.333)" fill="#ef4735"/>
            </g>
          </g>
          <g id="Group_57" data-name="Group 57" transform="translate(301.477 42.667)">
            <g id="Group_56" data-name="Group 56">
              <path id="Path_57" data-name="Path 57" d="M288.053,42.667h-.213a10.58,10.58,0,0,0-10.56,10.667,10.72,10.72,0,1,0,10.773-10.667Z" transform="translate(-277.28 -42.667)" fill="#ef4735"/>
            </g>
          </g>
          <g id="Group_59" data-name="Group 59" transform="translate(301.477 105.756)">
            <g id="Group_58" data-name="Group 58">
              <path id="Path_58" data-name="Path 58" d="M288.053,85.333h-.213A10.58,10.58,0,0,0,277.28,96a10.72,10.72,0,1,0,10.773-10.667Z" transform="translate(-277.28 -85.333)" fill="#ef4735"/>
            </g>
          </g>
          <g id="Group_61" data-name="Group 61" transform="translate(301.477 158.635)">
            <g id="Group_60" data-name="Group 60">
              <path id="Path_59" data-name="Path 59" d="M288.053,128h-.213a10.58,10.58,0,0,0-10.56,10.667A10.72,10.72,0,1,0,288.053,128Z" transform="translate(-277.28 -128)" fill="#ef4735"/>
            </g>
          </g>
          <g id="Group_63" data-name="Group 63" transform="translate(301.477 211.514)">
            <g id="Group_62" data-name="Group 62">
              <path id="Path_60" data-name="Path 60" d="M288.053,170.667h-.213a10.58,10.58,0,0,0-10.56,10.667,10.72,10.72,0,1,0,10.773-10.667Z" transform="translate(-277.28 -170.667)" fill="#ef4735"/>
            </g>
          </g>
          <g id="Group_65" data-name="Group 65" transform="translate(301.477 264.392)">
            <g id="Group_64" data-name="Group 64">
              <path id="Path_61" data-name="Path 61" d="M288.053,213.333h-.213A10.58,10.58,0,0,0,277.28,224a10.72,10.72,0,1,0,10.773-10.667Z" transform="translate(-277.28 -213.333)" fill="#ef4735"/>
            </g>
          </g>
          <g id="Group_67" data-name="Group 67" transform="translate(348.177 105.756)">
            <g id="Group_66" data-name="Group 66">
              <path id="Path_62" data-name="Path 62" d="M330.72,85.333h-.213A10.58,10.58,0,0,0,319.947,96,10.72,10.72,0,1,0,330.72,85.333Z" transform="translate(-319.947 -85.333)" fill="#ef4735"/>
            </g>
          </g>
          <g id="Group_69" data-name="Group 69" transform="translate(348.177 158.635)">
            <g id="Group_68" data-name="Group 68">
              <path id="Path_63" data-name="Path 63" d="M330.72,128h-.213a10.58,10.58,0,0,0-10.56,10.667A10.72,10.72,0,1,0,330.72,128Z" transform="translate(-319.947 -128)" fill="#ef4735"/>
            </g>
          </g>
          <g id="Group_71" data-name="Group 71" transform="translate(348.177 211.514)">
            <g id="Group_70" data-name="Group 70">
              <path id="Path_64" data-name="Path 64" d="M330.72,170.667h-.213a10.58,10.58,0,0,0-10.56,10.667,10.72,10.72,0,1,0,10.773-10.667Z" transform="translate(-319.947 -170.667)" fill="#ef4735"/>
            </g>
          </g>
          <g id="Group_73" data-name="Group 73" transform="translate(348.177 264.392)">
            <g id="Group_72" data-name="Group 72">
              <path id="Path_65" data-name="Path 65" d="M330.72,213.333h-.213A10.58,10.58,0,0,0,319.947,224a10.72,10.72,0,1,0,10.773-10.667Z" transform="translate(-319.947 -213.333)" fill="#ef4735"/>
            </g>
          </g>
          <g id="Group_75" data-name="Group 75" transform="translate(394.877 158.635)">
            <g id="Group_74" data-name="Group 74">
              <path id="Path_66" data-name="Path 66" d="M373.387,128h-.213a10.58,10.58,0,0,0-10.56,10.667A10.72,10.72,0,1,0,373.387,128Z" transform="translate(-362.614 -128)" fill="#ef4735"/>
            </g>
          </g>
          <g id="Group_77" data-name="Group 77" transform="translate(394.877 211.514)">
            <g id="Group_76" data-name="Group 76">
              <path id="Path_67" data-name="Path 67" d="M373.387,170.667h-.213a10.58,10.58,0,0,0-10.56,10.667,10.72,10.72,0,1,0,10.773-10.667Z" transform="translate(-362.614 -170.667)" fill="#ef4735"/>
            </g>
          </g>
          <g id="Group_79" data-name="Group 79" transform="translate(394.877 264.392)">
            <g id="Group_78" data-name="Group 78">
              <path id="Path_68" data-name="Path 68" d="M373.387,213.333h-.213A10.58,10.58,0,0,0,362.614,224a10.72,10.72,0,1,0,10.773-10.667Z" transform="translate(-362.614 -213.333)" fill="#ef4735"/>
            </g>
          </g>
          <g id="Group_81" data-name="Group 81" transform="translate(445.608 211.514)">
            <g id="Group_80" data-name="Group 80">
              <path id="Path_69" data-name="Path 69" d="M416.053,170.667h-.213a10.58,10.58,0,0,0-10.56,10.667,10.72,10.72,0,1,0,10.773-10.667Z" transform="translate(-405.28 -170.667)" fill="#ef4735"/>
            </g>
          </g>
          <g id="Group_83" data-name="Group 83" transform="translate(445.608 264.392)">
            <g id="Group_82" data-name="Group 82">
              <path id="Path_70" data-name="Path 70" d="M416.053,213.333h-.213A10.58,10.58,0,0,0,405.28,224a10.72,10.72,0,1,0,10.773-10.667Z" transform="translate(-405.28 -213.333)" fill="#ef4735"/>
            </g>
          </g>
          <g id="Group_85" data-name="Group 85" transform="translate(488.275 264.392)">
            <g id="Group_84" data-name="Group 84">
              <path id="Path_71" data-name="Path 71" d="M458.72,213.333h-.213A10.58,10.58,0,0,0,447.947,224a10.72,10.72,0,1,0,10.773-10.667Z" transform="translate(-447.947 -213.333)" fill="#ef4735"/>
            </g>
          </g>
          <g id="Group_87" data-name="Group 87" transform="translate(254.778 370.149)">
            <g id="Group_86" data-name="Group 86">
              <path id="Path_72" data-name="Path 72" d="M245.387,298.667h-.213a10.58,10.58,0,0,0-10.56,10.667,10.72,10.72,0,1,0,10.773-10.667Z" transform="translate(-234.614 -298.667)" fill="#ef4735"/>
            </g>
          </g>
          <g id="Group_89" data-name="Group 89" transform="translate(254.778 423.027)">
            <g id="Group_88" data-name="Group 88">
              <path id="Path_73" data-name="Path 73" d="M245.387,341.333h-.213A10.58,10.58,0,0,0,234.614,352a10.72,10.72,0,1,0,10.773-10.667Z" transform="translate(-234.614 -341.333)" fill="#ef4735"/>
            </g>
          </g>
          <g id="Group_91" data-name="Group 91" transform="translate(254.778 475.906)">
            <g id="Group_90" data-name="Group 90">
              <path id="Path_74" data-name="Path 74" d="M245.387,384h-.213a10.58,10.58,0,0,0-10.56,10.667A10.72,10.72,0,1,0,245.387,384Z" transform="translate(-234.614 -384)" fill="#ef4735"/>
            </g>
          </g>
          <g id="Group_93" data-name="Group 93" transform="translate(254.778 538.996)">
            <g id="Group_92" data-name="Group 92">
              <path id="Path_75" data-name="Path 75" d="M245.387,426.667h-.213a10.58,10.58,0,0,0-10.56,10.667,10.72,10.72,0,1,0,10.773-10.667Z" transform="translate(-234.614 -426.667)" fill="#ef4735"/>
            </g>
          </g>
          <g id="Group_95" data-name="Group 95" transform="translate(254.778 581.662)">
            <g id="Group_94" data-name="Group 94">
              <path id="Path_76" data-name="Path 76" d="M245.387,469.333h-.213A10.58,10.58,0,0,0,234.614,480a10.72,10.72,0,1,0,10.773-10.667Z" transform="translate(-234.614 -469.333)" fill="#ef4735"/>
            </g>
          </g>
          <g id="Group_97" data-name="Group 97" transform="translate(301.477 317.27)">
            <g id="Group_96" data-name="Group 96">
              <path id="Path_77" data-name="Path 77" d="M288.053,256h-.213a10.58,10.58,0,0,0-10.56,10.667A10.72,10.72,0,1,0,288.053,256Z" transform="translate(-277.28 -256)" fill="#ef4735"/>
            </g>
          </g>
          <g id="Group_99" data-name="Group 99" transform="translate(301.477 370.149)">
            <g id="Group_98" data-name="Group 98">
              <path id="Path_78" data-name="Path 78" d="M288.053,298.667h-.213a10.58,10.58,0,0,0-10.56,10.667,10.72,10.72,0,1,0,10.773-10.667Z" transform="translate(-277.28 -298.667)" fill="#ef4735"/>
            </g>
          </g>
          <g id="Group_101" data-name="Group 101" transform="translate(301.477 423.027)">
            <g id="Group_100" data-name="Group 100">
              <path id="Path_79" data-name="Path 79" d="M288.053,341.333h-.213A10.58,10.58,0,0,0,277.28,352a10.72,10.72,0,1,0,10.773-10.667Z" transform="translate(-277.28 -341.333)" fill="#ef4735"/>
            </g>
          </g>
          <g id="Group_103" data-name="Group 103" transform="translate(301.477 475.906)">
            <g id="Group_102" data-name="Group 102">
              <path id="Path_80" data-name="Path 80" d="M288.053,384h-.213a10.58,10.58,0,0,0-10.56,10.667A10.72,10.72,0,1,0,288.053,384Z" transform="translate(-277.28 -384)" fill="#ef4735"/>
            </g>
          </g>
          <g id="Group_105" data-name="Group 105" transform="translate(301.477 538.996)">
            <g id="Group_104" data-name="Group 104">
              <path id="Path_81" data-name="Path 81" d="M288.053,426.667h-.213a10.58,10.58,0,0,0-10.56,10.667,10.72,10.72,0,1,0,10.773-10.667Z" transform="translate(-277.28 -426.667)" fill="#ef4735"/>
            </g>
          </g>
          <g id="Group_107" data-name="Group 107" transform="translate(301.477 581.662)">
            <g id="Group_106" data-name="Group 106">
              <path id="Path_82" data-name="Path 82" d="M288.053,469.333h-.213A10.58,10.58,0,0,0,277.28,480a10.72,10.72,0,1,0,10.773-10.667Z" transform="translate(-277.28 -469.333)" fill="#ef4735"/>
            </g>
          </g>
          <g id="Group_109" data-name="Group 109" transform="translate(208.078 317.27)">
            <g id="Group_108" data-name="Group 108">
              <path id="Path_83" data-name="Path 83" d="M202.72,256h-.213a10.58,10.58,0,0,0-10.56,10.667A10.72,10.72,0,1,0,202.72,256Z" transform="translate(-191.947 -256)" fill="#ef4735"/>
            </g>
          </g>
          <g id="Group_111" data-name="Group 111" transform="translate(208.078 370.149)">
            <g id="Group_110" data-name="Group 110">
              <path id="Path_84" data-name="Path 84" d="M202.72,298.667h-.213a10.58,10.58,0,0,0-10.56,10.667,10.72,10.72,0,1,0,10.773-10.667Z" transform="translate(-191.947 -298.667)" fill="#ef4735"/>
            </g>
          </g>
          <g id="Group_113" data-name="Group 113" transform="translate(208.078 423.027)">
            <g id="Group_112" data-name="Group 112">
              <path id="Path_85" data-name="Path 85" d="M202.72,341.333h-.213A10.58,10.58,0,0,0,191.947,352a10.72,10.72,0,1,0,10.773-10.667Z" transform="translate(-191.947 -341.333)" fill="#ef4735"/>
            </g>
          </g>
          <g id="Group_115" data-name="Group 115" transform="translate(208.078 475.906)">
            <g id="Group_114" data-name="Group 114">
              <path id="Path_86" data-name="Path 86" d="M202.72,384h-.213a10.58,10.58,0,0,0-10.56,10.667A10.72,10.72,0,1,0,202.72,384Z" transform="translate(-191.947 -384)" fill="#ef4735"/>
            </g>
          </g>
          <g id="Group_117" data-name="Group 117" transform="translate(208.078 538.996)">
            <g id="Group_116" data-name="Group 116">
              <path id="Path_87" data-name="Path 87" d="M202.72,426.667h-.213a10.58,10.58,0,0,0-10.56,10.667,10.72,10.72,0,1,0,10.773-10.667Z" transform="translate(-191.947 -426.667)" fill="#ef4735"/>
            </g>
          </g>
          <g id="Group_119" data-name="Group 119" transform="translate(208.078 581.662)">
            <g id="Group_118" data-name="Group 118">
              <path id="Path_88" data-name="Path 88" d="M202.72,469.333h-.213A10.58,10.58,0,0,0,191.947,480a10.72,10.72,0,1,0,10.773-10.667Z" transform="translate(-191.947 -469.333)" fill="#ef4735"/>
            </g>
          </g>
        </g>
        <g id="users" transform="translate(1609 611.159)">
          <g id="Group_120" data-name="Group 120" transform="translate(-175.999 25.494)">
            <path id="Path_90" data-name="Path 90" d="M316.178,200.045c39.97-36.948,43.244-100.218,7.311-141.317-32.957-37.7-88.119-44.1-128.419-14.907C151.138,11.94,90.391,22.715,59.386,67.888c-28.449,41.45-22.247,98.229,14.436,132.156C28.243,224.749-.2,273.456,0,326.435V369.4a14.129,14.129,0,0,0,13.929,14.322h362.14A14.129,14.129,0,0,0,390,369.4V326.435C390.205,273.456,361.758,224.749,316.178,200.045Zm-96.3-10.111c-1.393-.687-2.785-1.289-4.025-2.063.112-.143.181-.3.292-.444a101.348,101.348,0,0,0,14.917-27.942l.432-1.2a103.341,103.341,0,0,0,3.691-14.738c.126-.73.223-1.432.335-2.22a103.447,103.447,0,0,0,1.267-15.4,103.514,103.514,0,0,0-1.267-15.368c-.112-.744-.209-1.432-.335-2.22A103.367,103.367,0,0,0,231.492,93.6l-.432-1.2a101.369,101.369,0,0,0-14.917-27.942c-.112-.144-.181-.3-.292-.444a67.73,67.73,0,0,1,34.863-9.7c38.408-.044,69.579,31.937,69.623,71.43.03,28.166-16.021,53.727-41,65.287-1.072.5-2.145.959-3.231,1.432a66.907,66.907,0,0,1-10.6,3.394c-.7.158-1.393.243-2.1.387a67.817,67.817,0,0,1-12.257,1.275c-1.853,0-3.719-.144-5.572-.315a10.241,10.241,0,0,1-2.089-.143,68.927,68.927,0,0,1-22.773-6.9C220.448,190.033,220.141,190.047,219.876,189.933ZM362.142,355.079H278.571V326.436c0-4.483-.251-8.923-.641-13.319-.112-1.289-.306-2.564-.446-3.853-.376-3.165-.808-6.3-1.393-9.41q-.376-1.99-.794-4-1-4.783-2.326-9.481c-.292-1.031-.557-2.077-.863-3.093a143.7,143.7,0,0,0-16.784-36.191l-.544-.817q-3.593-5.486-7.675-10.612l-.1-.129a128.819,128.819,0,0,0-8.984-10.269h.571a95.924,95.924,0,0,0,11.853.859h.766a95.839,95.839,0,0,0,10.976-.73c1.142-.144,2.27-.358,3.412-.545q4.444-.7,8.775-1.818c.822-.215,1.658-.415,2.493-.659a93.059,93.059,0,0,0,11.142-3.9c44.57,16.051,74.335,59.4,74.128,107.959v28.643Z" transform="translate(-0.001 -25.494)" fill="#fff"/>
          </g>
        </g>
      </g>
    </g>
  </g>
</svg>
