<svg xmlns="http://www.w3.org/2000/svg" xmlns:xlink="http://www.w3.org/1999/xlink" width="874" height="594" viewBox="0 0 874 594">
  <defs>
    <clipPath id="clip-Artboard_3">
      <rect width="874" height="594"/>
    </clipPath>
  </defs>
  <g id="Artboard_3" data-name="Artboard – 3" clip-path="url(#clip-Artboard_3)">
    <rect width="874" height="594" fill="#fff"/>
    <g id="Group_2" data-name="Group 2">
      <g id="Group_1" data-name="Group 1" transform="translate(-278 -217.957)">
        <rect id="Rectangle_1" data-name="Rectangle 1" width="879" height="596" transform="translate(275 215.957)" fill="#eb4034"/>
        <path id="Path_4" data-name="Path 4" d="M223.191,478.634l31.428,67.4,793.67-370.095-205.378-96.1L313.319,326.789,0,0,166.53,357.126Z" transform="translate(274.934 215.522) rotate(25)"/>
        <text id="SETTINGS" transform="translate(405.136 769.008)" fill="#fff" font-size="116" font-family="Roboto-Light, Roboto" font-weight="300"><tspan x="0" y="0">SETTINGS</tspan></text>
        <g id="noun_setting_746389" transform="translate(771 288.968)">
          <g id="Group_6" data-name="Group 6" transform="translate(56.365 42.6)">
            <g id="Group_4" data-name="Group 4" transform="translate(-153.491 2.222)">
              <path id="Path_10" data-name="Path 10" d="M166.288,297.406H117.721a6.726,6.726,0,0,1-6.307-4.816l-5.046-30.7A118.319,118.319,0,0,1,66,239.619L35.724,250.454a5.972,5.972,0,0,1-7.569-2.408L2.926,207.113a7.127,7.127,0,0,1,1.261-7.825l25.23-19.864a92.674,92.674,0,0,1-2.523-22.272,89.42,89.42,0,0,1,2.523-22.272L4.187,115.014c-2.523-1.2-3.154-4.816-1.261-7.223l24.6-40.331a6.215,6.215,0,0,1,7.569-2.408L65.369,75.887a119.948,119.948,0,0,1,40.367-22.272l5.046-30.7A6.085,6.085,0,0,1,117.09,18.1h48.567a6.726,6.726,0,0,1,6.307,4.816l5.046,30.7a118.32,118.32,0,0,1,40.367,22.272l30.276-10.835a5.972,5.972,0,0,1,7.569,2.408l24.6,40.331a7.127,7.127,0,0,1-1.261,7.825l-25.23,19.864a92.674,92.674,0,0,1,2.523,22.272,89.42,89.42,0,0,1-2.523,22.272l25.23,19.864a5.536,5.536,0,0,1,1.261,7.825l-24.6,40.331a6.215,6.215,0,0,1-7.569,2.408l-30.276-10.835a119.948,119.948,0,0,1-40.367,22.272l-5.046,30.7C171.964,295,169.441,297.406,166.288,297.406Zm-43.521-12.039h37.844l5.046-29.5c.631-2.408,1.892-4.214,4.415-4.816a103.579,103.579,0,0,0,42.26-23.476c1.892-1.806,4.415-2.408,6.307-1.2l29.014,10.835,18.922-31.3-23.968-18.661c-1.892-1.2-2.523-3.612-1.892-6.02a100.072,100.072,0,0,0,3.154-23.476,100.073,100.073,0,0,0-3.154-23.476c-.631-2.408,0-4.816,1.892-6.02L266.575,109.6,247.653,78.3,218.639,89.13c-2.523.6-5.046.6-6.307-1.2a111.048,111.048,0,0,0-42.26-23.476c-2.523-.6-3.784-2.408-4.415-4.816l-5.046-30.1H122.766l-5.046,29.5c-.631,2.408-1.892,4.214-4.415,4.816a103.579,103.579,0,0,0-42.26,23.476,6.241,6.241,0,0,1-6.307,1.2L35.094,77.693l-18.922,31.3,24.6,19.262c1.892,1.2,2.523,3.612,1.892,6.02a100.072,100.072,0,0,0-3.154,23.476,100.072,100.072,0,0,0,3.154,23.476c.631,2.408,0,4.816-1.892,6.02L16.8,205.909l18.922,31.3,29.014-10.835c2.523-.6,5.046-.6,6.307,1.2a111.048,111.048,0,0,0,42.26,23.476c2.523.6,3.784,2.408,4.415,4.816Zm18.922-61.4c-38.475,0-69.381-29.5-69.381-66.215s30.906-66.215,69.381-66.215,69.381,29.5,69.381,66.215S180.164,223.968,141.689,223.968Zm0-120.39c-31.537,0-56.767,24.078-56.767,54.176s25.23,54.176,56.767,54.176,56.767-24.078,56.767-54.176S173.226,103.577,141.689,103.577Z" transform="translate(-1.826 -18.1)"/>
            </g>
            <g id="Group_5" data-name="Group 5" transform="translate(121.496 -56)">
              <path id="Path_11" data-name="Path 11" d="M132.933,165.748H104.109a6.134,6.134,0,0,1-5.765-4.346l-2.882-16.841a75.7,75.7,0,0,1-22.483-12.495l-16.718,6.519a5.493,5.493,0,0,1-6.918-2.173l-14.412-23.36a6.37,6.37,0,0,1,1.153-7.062L49.92,95.126a92.093,92.093,0,0,1-1.153-11.952A83.851,83.851,0,0,1,49.92,71.223L36.084,60.358A4.956,4.956,0,0,1,34.931,53.3l14.412-23.36a5.72,5.72,0,0,1,6.918-2.173l16.718,5.976A59.259,59.259,0,0,1,95.462,21.787L98.344,4.946A5.549,5.549,0,0,1,104.109.6h28.824A6.134,6.134,0,0,1,138.7,4.946l2.882,16.841a88.311,88.311,0,0,1,22.483,11.952l16.718-5.976a5.493,5.493,0,0,1,6.918,2.173L202.111,53.3a6.37,6.37,0,0,1-1.153,7.062L187.123,71.223a92.091,92.091,0,0,1,1.153,11.952,83.853,83.853,0,0,1-1.153,11.952l13.836,10.865a4.956,4.956,0,0,1,1.153,7.062L187.7,136.413a5.719,5.719,0,0,1-6.918,2.173l-16.718-5.976a59.259,59.259,0,0,1-22.483,11.952L138.122,161.4C138.122,164.118,135.816,165.748,132.933,165.748Zm-24.212-10.865h19.024l2.882-15.211c.576-2.173,1.729-3.8,4.035-4.346A55.491,55.491,0,0,0,158.3,122.288c1.729-1.63,4.035-2.173,5.765-1.087l15.565,5.433,9.224-15.211-12.683-9.779a4.755,4.755,0,0,1-1.729-5.433,50.012,50.012,0,0,0,0-26.076,4.755,4.755,0,0,1,1.729-5.433l12.683-9.779-9.224-15.211-15.565,5.433c-2.306.543-4.612.543-5.765-1.087-6.918-5.976-14.989-10.865-23.636-13.038-2.306-1.087-4.035-2.716-4.035-4.889l-2.882-15.211H108.721l-2.882,15.211c-.576,2.173-1.729,3.8-4.035,4.346A55.491,55.491,0,0,0,78.167,43.517,5.76,5.76,0,0,1,72.4,44.6L56.838,39.171,47.614,54.382,60.3,64.16a4.755,4.755,0,0,1,1.729,5.433,50.01,50.01,0,0,0,0,26.076A4.755,4.755,0,0,1,60.3,101.1L47.614,111.423l9.224,15.211L72.4,121.2c2.306-.543,4.612-.543,5.765,1.087,6.918,5.976,14.989,10.865,23.636,13.038,2.306.543,3.459,2.173,4.035,4.346Zm9.8-31.509c-23.636,0-42.66-17.927-42.66-40.2s19.024-40.2,42.66-40.2,42.66,17.927,42.66,40.2S142.157,123.375,118.521,123.375Zm0-69.536c-17.294,0-31.13,13.038-31.13,29.336s13.836,29.336,31.13,29.336,31.13-13.038,31.13-29.336S135.816,53.839,118.521,53.839Z" transform="translate(-100.547 -40.6)"/>
            </g>
          </g>
        </g>
      </g>
    </g>
  </g>
</svg>
