<svg xmlns="http://www.w3.org/2000/svg" width="2339" height="185" viewBox="0 0 2339 185">
  <g id="Group_127" data-name="Group 127" transform="translate(273 -1736)">
    <g id="Group_126" data-name="Group 126">
      <g id="Rectangle_3" data-name="Rectangle 3" transform="translate(-273 1736)" stroke="#707070" stroke-width="1">
        <rect width="2339" height="185" stroke="none"/>
        <rect x="0.5" y="0.5" width="2338" height="184" fill="none"/>
      </g>
      <g id="noun_Gym_2992755" transform="translate(517.39 1766.919)">
        <path id="Path_1" data-name="Path 1" d="M9.768,75.153H16.7c.433,0,.867.23.867.461V93.357c0,2.3,3.467,3.917,7.368,3.917H46.61c4.334,0,7.368-1.843,7.368-3.917V40.817c0-2.3-3.467-3.917-7.368-3.917H24.938c-4.334,0-7.368,1.843-7.368,3.917V58.561c0,.23-.433.461-.867.461H9.768C7.167,59.022,5,60.174,5,61.557V72.848C5,74,7.167,75.153,9.768,75.153Z" transform="translate(-5 -5.9)" fill="#fff"/>
        <path id="Path_2" data-name="Path 2" d="M133.137,59.07h-7.755c-.485,0-.969-.231-.969-.462V40.826c0-2.309-3.877-3.926-8.24-3.926H91.94c-4.847,0-8.24,1.847-8.24,3.926V93.249c0,2.309,3.877,3.926,8.24,3.926h24.234c4.847,0,8.24-1.847,8.24-3.926V75.467c0-.231.485-.462.969-.462h7.755c2.908,0,5.331-1.155,5.331-2.54V61.148C138.469,60.225,136.045,59.07,133.137,59.07Z" transform="translate(66.575 -5.9)" fill="#fff"/>
        <path id="Path_3" data-name="Path 3" d="M148.208,144.715V35.27c0-3.474-2.1-6.37-4.63-6.37H124.214c-2.526,0-4.63,2.9-4.63,6.37V78.122H48.024V35.27c0-3.474-2.1-6.37-4.63-6.37H24.03c-2.526,0-4.63,2.9-4.63,6.37V145c0,3.474,2.1,6.37,4.63,6.37H43.394c2.526,0,4.63-2.9,4.63-6.37V102.153h71.56V145c0,3.474,2.1,6.37,4.63,6.37h19.363C146.314,151.085,148.208,148.19,148.208,144.715Z" transform="translate(15.593 -28.9)" fill="#fff"/>
      </g>
      <g id="Path_91" data-name="Path 91" transform="translate(988 1736)" fill="#7b7b7b">
        <path d="M 1077.5 184.5 L -402.3351745605469 184.5 L -206.5139617919922 0.5 L 1077.5 0.5 L 1077.5 184.5 Z" stroke="none"/>
        <path d="M -206.3159790039062 1 L -401.0728759765625 184 L 1077 184 L 1077 1 L -206.3159790039062 1 M -206.7119750976562 0 L 1078 0 L 1078 185 L -403.597412109375 185 L -206.7119750976562 0 Z" stroke="none" fill="#707070"/>
      </g>
    </g>
  </g>
</svg>
